<?xml version="1.0" encoding="iso-8859-1"?>
<!-- Generator: Adobe Illustrator 18.1.1, SVG Export Plug-In . SVG Version: 6.00 Build 0)  -->
<svg version="1.1" id="Capa_1" xmlns="http://www.w3.org/2000/svg" xmlns:xlink="http://www.w3.org/1999/xlink" x="0px" y="0px"
	 viewBox="0 0 26.021 26.021" style="enable-background:new 0 0 26.021 26.021;" xml:space="preserve">
<g>
	<path id="_x3C_Group_x3E__41_" style="fill:#ffffff;" d="M17.657,20.444V9.292h-3.716v11.151L17.657,20.444L17.657,20.444z
		 M23.234,20.444V9.292h-3.718v11.151L23.234,20.444L23.234,20.444z M25.092,7.104L13.012,0L0.931,7.104c0,0-0.834,0.751,0,1.26
		h24.161C25.092,8.363,25.768,7.811,25.092,7.104z M12.083,20.444V9.292H8.364v11.151L12.083,20.444L12.083,20.444z M6.506,20.444
		V9.292H2.789v11.151L6.506,20.444L6.506,20.444z M24.278,21.757L2.043,21.818l-2.042,2.669v1.534H26.02v-1.534L24.278,21.757z"/>
</g>
<g>
</g>
<g>
</g>
<g>
</g>
<g>
</g>
<g>
</g>
<g>
</g>
<g>
</g>
<g>
</g>
<g>
</g>
<g>
</g>
<g>
</g>
<g>
</g>
<g>
</g>
<g>
</g>
<g>
</g>
</svg>
