<?xml version="1.0" standalone="no"?>
<!DOCTYPE svg PUBLIC "-//W3C//DTD SVG 20010904//EN"
 "http://www.w3.org/TR/2001/REC-SVG-20010904/DTD/svg10.dtd">
<svg version="1.0" xmlns="http://www.w3.org/2000/svg"
 width="512.000000pt" height="512.000000pt" viewBox="0 0 512.000000 512.000000"
 preserveAspectRatio="xMidYMid meet">
<metadata>
Created by potrace 1.13, written by Peter Selinger 2001-2015
</metadata>
<g transform="translate(0.000000,512.000000) scale(0.100000,-0.100000)"
fill="#ffffff" stroke="none">
<path d="M2365 5083 c-71 -34 -261 -132 -530 -273 -216 -113 -328 -172 -450
-235 -71 -37 -166 -87 -210 -110 -44 -23 -147 -77 -230 -120 -82 -43 -184 -96
-225 -117 -41 -22 -131 -69 -200 -105 -130 -67 -184 -109 -194 -149 -7 -27 12
-70 40 -95 18 -16 217 -122 569 -304 83 -42 186 -96 230 -120 88 -47 663 -347
790 -412 44 -23 132 -69 195 -103 211 -112 272 -139 344 -150 38 -6 81 -8 95
-5 14 2 44 8 66 11 41 6 129 46 290 130 251 132 457 240 610 319 94 49 201
105 238 127 38 21 71 38 73 38 2 0 100 50 217 111 116 61 295 154 397 207 292
151 313 167 313 232 0 62 -44 89 -628 390 -88 45 -196 101 -240 125 -147 78
-498 262 -680 355 -99 51 -202 105 -230 120 -27 15 -111 58 -185 96 l-135 69
-125 3 -125 3 -80 -38z"/>
<path d="M239 3366 c-14 -9 -31 -28 -38 -43 -8 -21 -11 -293 -9 -1048 l3
-1020 27 -55 c58 -117 65 -122 698 -486 1310 -753 1239 -714 1284 -714 49 0
79 18 95 57 8 21 11 307 9 1103 l-3 1075 -32 60 c-56 108 -96 136 -448 317
-176 91 -579 300 -895 463 -608 315 -631 325 -691 291z"/>
<path d="M4598 3286 c-1781 -919 -1687 -865 -1750 -994 l-33 -67 -3 -1070 c-2
-791 1 -1077 9 -1098 16 -39 46 -57 94 -57 46 0 45 0 775 420 1205 694 1100
631 1153 695 26 33 57 84 70 115 l22 55 0 1000 c0 1089 2 1051 -56 1080 -55
29 -89 20 -281 -79z"/>
</g>
</svg>
